<svg xmlns="http://www.w3.org/2000/svg" viewBox="320 520 2050 500" role="img" aria-label="she3bo"><title>she3bo</title><path d="M 800.55 702.924 C 831.211 662.333 896.67 581.632 948.619 637.266 C 988.886 680.389 989.839 772.397 997.18 827.152 C 1000.83 853.819 1006.19 880.222 1013.23 906.2 C 1017.81 923.421 1023.05 939.293 1030.6 955.497 C 1033.43 961.566 1042.61 977.304 1037.11 982.119 C 1032.15 983.313 1010.22 982.857 1003.17 982.853 L 934.177 982.867 L 749.021 982.854 C 737.05 982.847 657.791 983.907 652.001 981.787 C 649.825 979.671 648.485 978.823 650.004 975.419 C 665.895 939.805 676.845 905.438 682.13 866.394 C 695.554 767.218 695.039 665.63 657.962 571.254 C 656.362 567.181 654.441 560.733 656.457 556.655 C 666.819 550.983 770.028 556.955 789.963 554.77 C 796.581 554.044 833.676 554.36 837.139 557.558 C 838.481 564.062 833.779 569.391 831.621 575.117 C 817.144 613.547 807.399 655.769 798.487 695.691 L 796.075 709.293 C 797.661 707.236 799.426 705.216 800.55 702.924 z" fill="rgb(26,26,26)" transform="translate(0,0)"></path><path d="M 823.151 756.286 C 842.81 754.469 860.94 764.322 864.167 785.014 C 872.092 835.83 865.076 888.838 855.256 938.873 C 854.141 944.555 850.419 961.74 847.501 966.242 C 824.189 925.705 812.522 866.155 805.185 820.255 C 801.085 794.599 793.668 768.354 823.151 756.286 z" fill="rgb(237,228,204)" transform="translate(0,0)"></path><path d="M 1594.01 982.552 C 1602.5 969.806 1610.09 959.017 1617 945.17 C 1650.1 879.361 1656.31 805.137 1648.72 732.828 C 1643.26 680.732 1632.8 631.544 1607.8 585.141 C 1604.8 579.563 1591.42 559.034 1592.61 554.298 C 1608.45 552.857 1641.35 553.849 1658.23 553.859 L 1784.44 553.924 C 1781.93 565.203 1774.5 586.003 1770.93 598.787 C 1761.41 632.908 1752.93 667.315 1745.52 701.958 L 1747.47 703.431 C 1758.7 674.814 1784.41 642.931 1812.94 630.702 C 1834.56 621.666 1858.86 621.487 1880.61 630.202 C 1962.28 663.385 1978.21 794.112 1960.44 869.24 C 1944.11 938.255 1884.92 1006.05 1807.62 980.276 C 1779.86 970.562 1750.18 931.591 1737.42 904.554 L 1734.37 898.892 L 1733.31 898.672 C 1733.86 902.075 1734.06 902.833 1735.38 906.012 C 1743.16 927.804 1750.38 947.802 1762.45 967.561 C 1764.98 971.701 1769.7 977.113 1769.33 981.809 C 1758.64 983.539 1723.99 982.752 1711.08 982.731 L 1594.01 982.552 z" fill="rgb(26,26,26)" transform="translate(0,0)"></path><path d="M 1747.47 703.431 C 1747.15 703.928 1746.84 704.43 1746.53 704.936 C 1746.24 705.422 1745.99 706.089 1745.35 706.324 C 1744.28 705.621 1745.27 702.972 1745.52 701.958 L 1747.47 703.431 z" fill="rgb(180,174,169)" transform="translate(0,0)"></path><path d="M 1800.69 763.316 C 1815.26 761.399 1830.39 765.92 1839.52 777.862 C 1845.8 786.038 1848.56 796.378 1847.2 806.596 C 1845.95 816.053 1840.93 824.603 1833.28 830.298 C 1820.07 840.176 1803.68 840.028 1788.19 837.809 C 1765.57 832.606 1746.74 824.194 1735.03 803.143 C 1754.54 778.818 1768.54 768.015 1800.69 763.316 z" fill="rgb(237,228,204)" transform="translate(0,0)"></path><path d="M 2147.61 624.399 C 2207.35 620.456 2248.48 636.233 2289.29 681.061 C 2346.09 743.232 2346.19 847.618 2293.99 912.572 C 2258.91 956.224 2214.4 978.956 2159.6 985.862 C 2115.24 988.109 2071.47 981.929 2036.61 953.268 C 1956.34 887.268 1952.28 768.687 2017.96 690.885 C 2056.24 645.539 2090.45 630.629 2147.61 624.399 z" fill="rgb(26,26,26)" transform="translate(0,0)"></path><path d="M 2129.1 661.831 C 2176.56 664.023 2210.1 901.255 2175.18 946.947 C 2166.99 950.889 2163.81 945.362 2159.37 939.325 C 2128.2 896.989 2097.55 696.794 2129.1 661.831 z" fill="rgb(237,228,204)" transform="translate(0,0)"></path><path d="M 1456.62 548.411 C 1519.65 543.205 1596.36 570.277 1606.63 640.504 C 1611.69 675.148 1603.59 717.212 1570.35 735.565 C 1561.78 740.295 1553.08 741.642 1543.64 743.005 C 1575.75 750.632 1603.35 765.141 1617.36 796.096 C 1648.33 864.52 1616.71 938.255 1549.34 968.581 C 1498.32 991.543 1437.34 991.176 1385.05 973.159 C 1357.36 963.617 1319.37 936.592 1306.68 909.792 C 1310.77 901.881 1322.06 889.462 1328.11 882.398 C 1343.87 864.785 1358.31 846.273 1373.98 828.647 C 1384.84 816.431 1393.09 824.037 1402.15 833.16 C 1421.72 852.857 1452.84 882.866 1479.99 856.989 C 1493.66 842.413 1491.41 819.16 1476.51 806.663 C 1457.69 790.884 1433.69 794.052 1411.36 796.975 C 1408.31 797.374 1406.87 796.69 1404.78 794.715 C 1400.49 783.664 1402.79 737.767 1404.23 724.278 C 1404.78 719.126 1432.75 725.26 1438.75 725.193 C 1446.1 725.132 1453.36 723.628 1460.13 720.767 C 1487.74 709.03 1490.96 664.865 1462.92 655.983 C 1429.6 645.428 1408.51 689.297 1387.03 704.509 C 1385.67 705.473 1380.18 705.911 1379.2 704.835 C 1364.01 688.123 1317.25 644.04 1309.42 625.959 C 1309.24 622.329 1312.33 617.783 1314.74 615.161 C 1351.54 575.02 1403.73 553.004 1456.62 548.411 z" fill="rgb(214,40,40)" transform="translate(0,0)"></path><path d="M 1178.39 624.419 C 1217.31 620.172 1273.9 636.596 1299.16 666.267 C 1328.56 700.82 1340.73 775.346 1300.45 806.605 C 1260.86 837.327 1200.23 841.074 1152.43 836.266 C 1178.99 879.128 1255.06 877.764 1293.89 854.473 C 1300.51 850.503 1313.99 833.846 1320.35 835.508 C 1325.13 840.636 1322.65 849.166 1321.9 855.631 C 1319.18 879.223 1310.55 899.885 1297.55 919.527 C 1294.22 924.493 1290.61 929.263 1286.74 933.816 C 1260.63 964.12 1223.45 982.667 1183.54 985.293 C 1139.65 988.618 1094.19 977.969 1060.41 948.57 C 988.6 885.599 987.426 755.1 1049.74 685.263 C 1086.54 644.021 1124.17 628.16 1178.39 624.419 z" fill="rgb(26,26,26)" transform="translate(0,0)"></path><path d="M 1175.07 655.608 C 1184.11 659.874 1189.94 688.444 1190.65 697.508 C 1194.08 741.123 1179.07 784.674 1151.55 818.37 C 1150.12 820.46 1150.3 820.576 1148.01 821.521 C 1141.61 814.485 1137.57 761.465 1138.85 749.308 C 1142.96 710.236 1144.92 682.953 1175.07 655.608 z" fill="rgb(237,228,204)" transform="translate(0,0)"></path><path d="M 517.429 622.406 C 550.759 620.446 590.027 626.189 620.298 640.652 C 632.832 646.641 670.412 668.315 674.607 679.944 C 674.842 687.193 635.66 767.364 629.307 778.015 C 597.525 753.04 541.442 670.819 504.789 663.005 C 500.192 662.025 493.117 661.528 489.239 664.604 C 487.256 666.176 486.595 668.328 486.723 670.786 C 488.018 695.633 562.336 738.002 583.273 752.447 C 599.989 763.979 617.118 776.044 631.407 790.566 C 654.888 814.429 669.088 843.017 668.607 876.999 C 668.226 903.965 657.736 930.218 638.287 949.057 C 605.148 981.155 556.454 986.682 512.612 985.947 C 463.305 983.3 419.861 971.156 378.2 944.129 C 373.698 941.209 348.714 926.717 351.531 920.651 C 366.384 888.666 382.887 857.149 398.884 825.676 C 407.536 808.652 412.612 815.671 422.566 826.476 L 481.053 890.18 C 494.294 904.516 506.682 918.276 521.955 931.261 C 530.748 938.737 550.529 945.436 551.871 927.035 C 551.745 918.828 544.872 911.663 540.515 905.834 C 508.903 863.553 455.44 845.992 419.165 809.548 C 381.639 771.846 367.303 711.417 405.574 668.596 C 435.194 635.456 474.875 625.48 517.429 622.406 z" fill="rgb(26,26,26)" transform="translate(0,0)"></path></svg>
