<svg xmlns="http://www.w3.org/2000/svg" viewBox="700 410 650 1235" role="img" aria-label="she3bo"><title>she3bo</title><path d="M 1129.78 444.355 C 1161.75 439.618 1194.7 461.985 1203.33 492.933 C 1210.98 520.253 1198.69 549.233 1173.73 562.715 C 1161.66 569.099 1146.75 570.916 1133.15 579.458 C 1110.09 593.946 1097.7 605.937 1084.63 629.338 C 1123.28 640.826 1156.3 656.71 1187.99 681.956 C 1248.26 729.01 1287.15 798.26 1295.97 874.213 C 1301.74 928.538 1287.2 988.918 1260.33 1036.62 C 1251.68 1051.98 1240.53 1065.91 1229.47 1079.58 C 1242.55 1091.47 1252.64 1103.61 1263.05 1117.87 C 1307.9 1180.2 1326.17 1257.78 1313.86 1333.57 C 1300.32 1415.29 1255.18 1488.41 1188.18 1537.12 C 1115.86 1589.57 1037.96 1610.13 948.528 1595.82 C 864.128 1582.57 793.381 1535.9 743.785 1467.01 C 720.77 1435.04 729.402 1399.94 760.358 1378.16 C 733.945 1335.96 735.282 1295.58 764.405 1255.32 C 784.733 1227.21 800.731 1211.44 787.396 1174.84 C 769.628 1162.58 760.244 1151.47 771.3 1129.82 C 782.69 1114.95 797.408 1112.9 813.632 1121.08 C 852.452 1140.29 878.149 1167.39 902.72 1202.18 C 947.047 1264.96 965.353 1356.23 891.469 1405.81 C 951.394 1410.13 1016.73 1397.2 1048.65 1340.74 C 1063.66 1314.71 1067.43 1283.7 1059.12 1254.82 C 1048.63 1217.19 1019.94 1187.34 982.75 1175.36 C 967.891 1170.67 954.544 1169.6 940.504 1161.59 C 922.154 1151.12 912.213 1134.17 906.692 1114.19 C 902.136 1097.72 903.013 1082.85 908.231 1066.66 C 930.662 997.068 1003.17 1033.75 1039.1 969.416 C 1050.37 949.691 1053.16 926.246 1046.85 904.427 C 1040.39 881.823 1025.01 862.819 1004.25 851.782 C 956.364 826.14 898.968 850.338 874.307 896.347 C 869.593 905.142 866.464 915.538 861.673 924.179 C 853.387 939.124 836.862 950.019 820.661 954.404 C 803.601 959.08 785.375 956.662 770.124 947.7 C 754.456 938.467 743.094 923.394 738.531 905.79 C 728.035 865.03 756.781 787.041 778.911 751.037 C 809.067 701.975 854.46 660.164 908.553 638.959 C 924.069 632.876 936.621 629.757 952.52 625.832 C 958.12 588.129 973.167 552.455 996.262 522.132 C 1028.84 479.693 1076.79 451.759 1129.78 444.355 z" fill="rgb(26,26,26)" transform="translate(0,0)"></path><path d="M 994.9 673.502 C 1003.26 673.087 1011.63 672.962 1019.99 673.128 C 1081.35 674.416 1137.36 702.596 1179.95 746.038 C 1257.67 825.305 1264.59 940.488 1201.78 1030.9 C 1185.86 1053.81 1172.76 1067.49 1152.6 1086.66 C 1175.95 1102.72 1193.51 1115.96 1212.08 1138.31 C 1250.7 1184.87 1268.59 1246.34 1263.5 1306.39 C 1251.84 1443.84 1118.43 1558.29 980.529 1545.8 C 913.482 1539.73 845.596 1504.8 802.336 1453.17 C 797.966 1447.95 784.329 1432.46 791.465 1426.64 C 793.014 1426.31 795.485 1425.94 796.913 1426.72 C 829.833 1444.7 858.767 1454.31 896.835 1458.39 C 972.112 1464.52 1050.39 1438.32 1091.96 1371.51 C 1147.9 1281.63 1101.86 1162.94 1004.28 1126.93 C 994.044 1122.04 977.843 1120.83 968.158 1115.92 C 955.453 1109.47 951.9 1080.48 965.981 1073.14 C 974.364 1068.49 984.78 1065.39 994.06 1062.71 C 1070.2 1040.72 1119.59 968.907 1096.31 889.354 C 1085.91 853.382 1061.3 823.198 1028.17 805.761 C 993.109 786.989 956.868 784.017 919.001 795.701 C 881.099 807.443 849.11 833.213 829.568 867.747 C 824.116 877.359 814.449 914.554 797.412 904.423 C 793.492 901.679 789.738 896.149 789.885 891.209 C 792.51 802.975 854.088 710.962 939.653 683.588 C 959.502 677.237 975.653 675.075 994.9 673.502 z" fill="rgb(214,40,40)" transform="translate(0,0)"></path><path d="M 842.978 1221.42 C 844.197 1222.28 845.31 1223.28 846.294 1224.4 C 864.13 1244.52 885.648 1286.76 883.752 1315.07 C 881.632 1346.75 866.848 1368.83 831.574 1366.76 C 804.233 1361.7 792.684 1334.64 800.703 1309.65 C 804.238 1298.64 808.869 1291.28 815.504 1281.93 C 819.197 1285.55 821.646 1288.66 824.897 1292.63 C 828.265 1282.07 832.899 1271.88 836.109 1260.8 C 840.228 1246.58 841.5 1235.89 842.978 1221.42 z" fill="rgb(247,127,0)" transform="translate(0,0)"></path><path d="M 1135.33 494.309 C 1147.42 492.424 1162.66 507.705 1149.33 516.693 C 1143.26 519.732 1135.21 521.139 1129.08 523.626 C 1093.59 538.021 1064.22 565.507 1046.94 599.631 C 1037.51 618.255 1034.9 630.157 1032.74 650.584 L 1020.11 650.473 L 996.992 650.129 C 998.39 575.506 1062.64 506.402 1135.33 494.309 z" fill="rgb(45,80,22)" transform="translate(0,0)"></path></svg>
